HIERARCHY
ROOT Hips
{
	OFFSET 0.000000 83.208069 2.550922
	CHANNELS 6 Xposition Yposition Zposition Xrotation Yrotation Zrotation
	JOINT Pelvis
	{
		OFFSET 0.000000 0.000000 0.000000
		CHANNELS 3 Xrotation Yrotation Zrotation
		JOINT LeftUpLeg
		{
			OFFSET 8.479694 -4.795517 -0.379053
			CHANNELS 3 Xrotation Yrotation Zrotation
			JOINT LeftLeg
			{
				OFFSET 0.485052 -32.551468 0.112863
				CHANNELS 3 Xrotation Yrotation Zrotation
				JOINT LeftFoot
				{
					OFFSET 0.438033 -32.635670 -3.012641
					CHANNELS 3 Xrotation Yrotation Zrotation
					JOINT LeftToeBase
					{
						OFFSET 0.970169 -13.225353 11.864223
						CHANNELS 3 Xrotation Yrotation Zrotation
						End Site
						{
							OFFSET 0.000000 12.319231 0.000000
						}
					}
					JOINT LFootTongue
					{
						OFFSET 1.142399 -1.059789 6.665162
						CHANNELS 3 Xrotation Yrotation Zrotation
						End Site
						{
							OFFSET 0.000000 12.319230 0.000000
						}
					}
				}
				JOINT LeftPantLeg
				{
					OFFSET 1.152549 -16.519323 -2.284731
					CHANNELS 3 Xrotation Yrotation Zrotation
					End Site
					{
						OFFSET 0.000000 24.746851 0.000000
					}
				}
			}
		}
		JOINT RightUpLeg
		{
			OFFSET -8.479694 -4.795517 -0.379053
			CHANNELS 3 Xrotation Yrotation Zrotation
			JOINT RightLeg
			{
				OFFSET -0.484100 -32.551483 0.112903
				CHANNELS 3 Xrotation Yrotation Zrotation
				JOINT RightFoot
				{
					OFFSET -0.438985 -32.635651 -3.012681
					CHANNELS 3 Xrotation Yrotation Zrotation
					JOINT RightToeBase
					{
						OFFSET -0.970169 -13.225354 11.864223
						CHANNELS 3 Xrotation Yrotation Zrotation
						End Site
						{
							OFFSET 0.000000 12.319217 0.000000
						}
					}
					JOINT RFootTongue
					{
						OFFSET -1.142220 -1.059793 6.665161
						CHANNELS 3 Xrotation Yrotation Zrotation
						End Site
						{
							OFFSET 0.000000 12.319217 0.000000
						}
					}
				}
				JOINT RightPantLeg
				{
					OFFSET -1.153501 -16.519308 -2.284772
					CHANNELS 3 Xrotation Yrotation Zrotation
					End Site
					{
						OFFSET 0.000000 24.746878 0.000000
					}
				}
			}
		}
	}
	JOINT Spine
	{
		OFFSET 0.000000 7.722015 1.166203
		CHANNELS 3 Xrotation Yrotation Zrotation
		JOINT Spine1
		{
			OFFSET 0.000000 12.024086 0.248766
			CHANNELS 3 Xrotation Yrotation Zrotation
			JOINT Spine2
			{
				OFFSET -0.000000 11.503036 -0.491240
				CHANNELS 3 Xrotation Yrotation Zrotation
				JOINT Neck
				{
					OFFSET 0.000000 18.430687 -3.123054
					CHANNELS 3 Xrotation Yrotation Zrotation
					JOINT Head
					{
						OFFSET -0.000000 9.051071 1.034021
						CHANNELS 3 Xrotation Yrotation Zrotation
						JOINT HairB
						{
							OFFSET 0.208397 24.786072 24.822304
							CHANNELS 3 Xrotation Yrotation Zrotation
							End Site
							{
								OFFSET 0.000000 32.263794 0.000000
							}
						}
						JOINT HairA
						{
							OFFSET -7.081073 24.428299 23.196634
							CHANNELS 3 Xrotation Yrotation Zrotation
							End Site
							{
								OFFSET 0.000000 32.263779 0.000000
							}
						}
						JOINT Hat
						{
							OFFSET 16.728800 15.048309 -15.439650
							CHANNELS 3 Xrotation Yrotation Zrotation
							End Site
							{
								OFFSET 0.000000 32.263794 0.000000
							}
						}
					}
				}
				JOINT LeftShoulder
				{
					OFFSET 6.197824 13.665230 -4.064723
					CHANNELS 3 Xrotation Yrotation Zrotation
					JOINT LeftArm
					{
						OFFSET 7.778132 -0.187073 -1.709282
						CHANNELS 3 Xrotation Yrotation Zrotation
						JOINT LeftForeArm
						{
							OFFSET 21.954697 0.000000 -2.041093
							CHANNELS 3 Xrotation Yrotation Zrotation
							JOINT LeftHand
							{
								OFFSET 22.992908 0.000000 -0.870901
								CHANNELS 3 Xrotation Yrotation Zrotation
								JOINT LeftHandThumb1
								{
									OFFSET 3.593975 -1.460358 3.365570
									CHANNELS 3 Xrotation Yrotation Zrotation
									JOINT LeftHandThumb2
									{
										OFFSET 3.016712 -1.561966 2.119022
										CHANNELS 3 Xrotation Yrotation Zrotation
										JOINT LeftHandThumb3
										{
											OFFSET 3.029564 -2.099800 1.415844
											CHANNELS 3 Xrotation Yrotation Zrotation
											End Site
											{
												OFFSET 0.000000 3.948677 0.000000
											}
										}
									}
								}
								JOINT LeftHandIndex1
								{
									OFFSET 11.372505 0.065018 3.699154
									CHANNELS 3 Xrotation Yrotation Zrotation
									JOINT LeftHandIndex2
									{
										OFFSET 3.229195 -0.574921 -0.143498
										CHANNELS 3 Xrotation Yrotation Zrotation
										JOINT LeftHandIndex3
										{
											OFFSET 3.111160 -1.135635 -0.280794
											CHANNELS 3 Xrotation Yrotation Zrotation
											End Site
											{
												OFFSET 0.000000 3.323822 0.000000
											}
										}
									}
								}
								JOINT LeftHandMiddle1
								{
									OFFSET 11.327377 0.426697 -0.098180
									CHANNELS 3 Xrotation Yrotation Zrotation
									JOINT LeftHandMiddle2
									{
										OFFSET 3.290932 -0.875465 -0.186927
										CHANNELS 3 Xrotation Yrotation Zrotation
										JOINT LeftHandMiddle3
										{
											OFFSET 3.094551 -1.150223 -0.267588
											CHANNELS 3 Xrotation Yrotation Zrotation
											End Site
											{
												OFFSET 0.000000 3.312233 0.000000
											}
										}
									}
								}
								JOINT LeftHandRing1
								{
									OFFSET 11.497078 -0.008904 -3.070051
									CHANNELS 3 Xrotation Yrotation Zrotation
									JOINT LeftHandRing2
									{
										OFFSET 2.881340 -0.992859 -0.186928
										CHANNELS 3 Xrotation Yrotation Zrotation
										JOINT LeftHandRing3
										{
											OFFSET 3.022743 -1.281013 -0.290960
											CHANNELS 3 Xrotation Yrotation Zrotation
											End Site
											{
												OFFSET 0.000000 3.295853 0.000000
											}
										}
									}
								}
								JOINT LeftHandPinky1
								{
									OFFSET 10.529488 -1.373093 -5.625615
									CHANNELS 3 Xrotation Yrotation Zrotation
									JOINT LeftHandPinky2
									{
										OFFSET 2.679024 -0.950073 -0.330554
										CHANNELS 3 Xrotation Yrotation Zrotation
										JOINT LeftHandPinky3
										{
											OFFSET 2.724571 -0.843613 -0.252685
											CHANNELS 3 Xrotation Yrotation Zrotation
											End Site
											{
												OFFSET 0.000000 2.863358 0.000000
											}
										}
									}
								}
							}
							JOINT LSleeve
							{
								OFFSET 6.633202 -0.344879 -1.263650
								CHANNELS 3 Xrotation Yrotation Zrotation
								End Site
								{
									OFFSET 0.000000 14.885345 0.000000
								}
							}
						}
					}
				}
				JOINT RightShoulder
				{
					OFFSET -6.197824 13.665230 -4.064723
					CHANNELS 3 Xrotation Yrotation Zrotation
					JOINT RightArm
					{
						OFFSET -7.778132 -0.187073 -1.709282
						CHANNELS 3 Xrotation Yrotation Zrotation
						JOINT RightForeArm
						{
							OFFSET -21.954697 0.000000 -2.041093
							CHANNELS 3 Xrotation Yrotation Zrotation
							JOINT RightHand
							{
								OFFSET -22.992908 0.000000 -0.870901
								CHANNELS 3 Xrotation Yrotation Zrotation
								JOINT RightHandThumb1
								{
									OFFSET -3.593975 -1.460358 3.365570
									CHANNELS 3 Xrotation Yrotation Zrotation
									JOINT RightHandThumb2
									{
										OFFSET -3.016712 -1.561966 2.119022
										CHANNELS 3 Xrotation Yrotation Zrotation
										JOINT RightHandThumb3
										{
											OFFSET -3.029564 -2.099800 1.415844
											CHANNELS 3 Xrotation Yrotation Zrotation
											End Site
											{
												OFFSET 0.000000 3.948677 0.000000
											}
										}
									}
								}
								JOINT RightHandIndex1
								{
									OFFSET -11.372513 0.065018 3.699154
									CHANNELS 3 Xrotation Yrotation Zrotation
									JOINT RightHandIndex2
									{
										OFFSET -3.229187 -0.574921 -0.143498
										CHANNELS 3 Xrotation Yrotation Zrotation
										JOINT RightHandIndex3
										{
											OFFSET -3.111160 -1.135635 -0.280794
											CHANNELS 3 Xrotation Yrotation Zrotation
											End Site
											{
												OFFSET 0.000000 3.323822 0.000000
											}
										}
									}
								}
								JOINT RightHandMiddle1
								{
									OFFSET -11.327377 0.426697 -0.098180
									CHANNELS 3 Xrotation Yrotation Zrotation
									JOINT RightHandMiddle2
									{
										OFFSET -3.290932 -0.875465 -0.186927
										CHANNELS 3 Xrotation Yrotation Zrotation
										JOINT RightHandMiddle3
										{
											OFFSET -3.094551 -1.150223 -0.267588
											CHANNELS 3 Xrotation Yrotation Zrotation
											End Site
											{
												OFFSET 0.000000 3.312233 0.000000
											}
										}
									}
								}
								JOINT RightHandRing1
								{
									OFFSET -11.497078 -0.008904 -3.070051
									CHANNELS 3 Xrotation Yrotation Zrotation
									JOINT RightHandRing2
									{
										OFFSET -2.881340 -0.992859 -0.186928
										CHANNELS 3 Xrotation Yrotation Zrotation
										JOINT RightHandRing3
										{
											OFFSET -3.022743 -1.281013 -0.290960
											CHANNELS 3 Xrotation Yrotation Zrotation
											End Site
											{
												OFFSET 0.000000 3.295853 0.000000
											}
										}
									}
								}
								JOINT RightHandPinky1
								{
									OFFSET -10.529488 -1.373093 -5.625615
									CHANNELS 3 Xrotation Yrotation Zrotation
									JOINT RightHandPinky2
									{
										OFFSET -2.679024 -0.950073 -0.330554
										CHANNELS 3 Xrotation Yrotation Zrotation
										JOINT RightHandPinky3
										{
											OFFSET -2.724571 -0.843613 -0.252685
											CHANNELS 3 Xrotation Yrotation Zrotation
											End Site
											{
												OFFSET 0.000000 2.863358 0.000000
											}
										}
									}
								}
							}
							JOINT RSleeve
							{
								OFFSET -6.633202 -0.344879 -1.263650
								CHANNELS 3 Xrotation Yrotation Zrotation
								End Site
								{
									OFFSET 0.000000 14.885345 0.000000
								}
							}
						}
					}
				}
				JOINT Backpack
				{
					OFFSET -0.000000 -2.471489 36.677479
					CHANNELS 3 Xrotation Yrotation Zrotation
					End Site
					{
						OFFSET 0.000000 20.427322 0.000000
					}
				}
				JOINT Hood
				{
					OFFSET -0.000000 18.754143 -10.430963
					CHANNELS 3 Xrotation Yrotation Zrotation
					JOINT Hood1
					{
						OFFSET -0.000000 -5.011017 -7.685929
						CHANNELS 3 Xrotation Yrotation Zrotation
						End Site
						{
							OFFSET 0.000000 9.175171 0.000000
						}
					}
				}
				JOINT LHoodieString
				{
					OFFSET 5.250455 16.397728 3.089918
					CHANNELS 3 Xrotation Yrotation Zrotation
					JOINT LHoodieString1
					{
						OFFSET 0.257711 -6.364296 3.694587
						CHANNELS 3 Xrotation Yrotation Zrotation
						JOINT LHoodieString2
						{
							OFFSET 0.000000 -9.643806 2.679132
							CHANNELS 3 Xrotation Yrotation Zrotation
							End Site
							{
								OFFSET 0.000000 10.009033 0.000000
							}
						}
					}
				}
				JOINT RHoodieString
				{
					OFFSET -5.250455 16.397728 3.089918
					CHANNELS 3 Xrotation Yrotation Zrotation
					JOINT RHoodieString1
					{
						OFFSET -0.257711 -6.364296 3.694587
						CHANNELS 3 Xrotation Yrotation Zrotation
						JOINT RHoodieString2
						{
							OFFSET 0.000000 -9.643806 2.679132
							CHANNELS 3 Xrotation Yrotation Zrotation
							End Site
							{
								OFFSET 0.000000 10.009033 0.000000
							}
						}
					}
				}
			}
			JOINT LBackpack_Strap
			{
				OFFSET 15.223173 -7.719788 -6.610897
				CHANNELS 3 Xrotation Yrotation Zrotation
				End Site
				{
					OFFSET 0.000000 16.040596 0.000000
				}
			}
			JOINT RBackpack_Strap
			{
				OFFSET -15.223000 -7.719788 -6.610897
				CHANNELS 3 Xrotation Yrotation Zrotation
				End Site
				{
					OFFSET 0.000000 16.040596 0.000000
				}
			}
		}
	}
	JOINT BoyFacialAnim_Joint
	{
		OFFSET 1.000000 -82.208069 -1.550922
		CHANNELS 3 Xrotation Yrotation Zrotation
		End Site
		{
			OFFSET 0.000000 30.012787 0.000000
		}
	}
}
MOTION
Frames: 4
Frame Time: 0.016667
0.878585 81.126068 1.059251 4.450107 16.257575 -2.185971 -0.000000 0.000002 -0.000000 -14.653017 10.072559 -5.473546 27.871311 9.963839 -0.397249 -15.106466 -2.814553 13.960692 -0.000000 0.000000 -0.000001 -0.000000 0.000000 -0.000002 0.000001 0.000001 -0.000000 -13.143605 -7.926103 5.220009 26.283632 -1.215061 -7.828642 -13.029934 -0.041919 0.527517 0.000001 0.000000 -0.000000 0.000001 0.000000 -0.000000 0.000001 0.000000 0.000000 -9.074859 -9.796224 1.106383 4.636100 -1.592017 -0.303832 4.616003 -1.618330 -0.429758 3.210325 -2.116575 2.121247 7.396627 -7.821496 0.693632 0.000001 -0.000000 0.000000 0.000001 -0.000000 0.000000 0.000001 -0.000000 0.000000 1.305225 -1.808908 2.207024 -24.786487 -41.905468 -58.704445 0.000062 -103.626032 0.000062 39.837041 -25.679208 31.726136 -2.563346 6.845687 8.301895 -2.751252 9.053914 6.889702 -0.000000 -0.000001 0.000002 0.166653 -2.144264 6.996381 -0.261161 -2.523312 4.670473 -0.000000 0.000001 0.000001 0.356089 -2.791275 11.812606 -0.492539 -1.606393 0.205739 0.000001 -0.000000 0.000000 0.538076 -3.170130 15.910538 -0.739420 -1.597935 -1.314431 0.000001 -0.000000 -0.000000 1.193169 -2.246148 16.251293 -1.556684 -2.331198 -7.406511 -0.000002 0.000000 0.000000 0.000001 -0.000002 -0.000003 -0.063058 -9.130680 7.907588 0.995305 -8.451588 43.251176 0.000024 111.321592 -0.000048 37.648474 -11.745214 34.831595 -2.701572 -1.979170 -8.630639 -1.878794 -11.314932 -6.443432 -0.000000 0.000001 0.000000 -0.063675 2.253698 -2.006479 -0.720142 2.571959 0.316169 0.000001 0.000000 -0.000000 0.067757 2.915122 -6.804411 -0.933833 1.620023 4.758560 0.000002 -0.000000 -0.000000 0.217008 3.307957 -10.917034 -1.220294 1.572916 6.292047 0.000001 0.000000 0.000001 0.385835 6.488214 -11.389696 -0.694801 -1.547234 12.468052 0.000001 -0.000000 0.000002 -0.000003 -0.000000 -0.000000 -0.000001 -0.000000 -0.000000 -0.000001 -0.000000 -0.000000 -0.000001 -0.000000 -0.000000 -0.000001 -0.000000 -0.000000 -0.000001 -0.000000 -0.000000 -0.000001 -0.000000 -0.000000 -0.000001 -0.000000 -0.000000 -0.000001 -0.000000 -0.000000 -0.000001 -0.000000 -0.000000 -0.000000 0.000000 0.000000 -0.000000 0.000000 0.000000 -0.000000 0.000002 -0.000000 
1.039296 81.132851 1.133540 5.121300 17.971910 -3.518272 0.000001 0.000001 -0.000000 -17.636337 9.976342 -4.209522 31.230992 7.729998 0.834400 -13.467606 -2.080829 11.180815 -0.000001 -0.000001 -0.000000 -0.000001 -0.000001 0.000000 0.000003 -0.000003 -0.000000 -11.696322 -7.687837 5.380128 23.319041 -1.943524 -5.851498 -13.106582 -0.054225 0.582367 0.000000 -0.000001 0.000000 0.000000 -0.000001 0.000000 0.000000 -0.000000 0.000000 -9.890504 -10.400752 0.935011 5.009728 -1.598642 0.816571 5.012417 -1.653337 0.675420 2.880192 -2.291888 1.783469 7.576900 -8.889892 -0.176367 0.000001 0.000000 -0.000000 0.000001 0.000000 -0.000000 0.000001 0.000000 -0.000000 1.122199 -1.375025 2.869631 -23.575376 -45.501306 -57.072743 0.000124 -103.553222 0.000138 37.844507 -26.950373 31.025397 -2.563330 6.849089 8.301006 -2.751254 9.053916 6.889704 -0.000001 0.000000 0.000001 0.162765 -2.146522 6.910385 -0.269417 -2.524751 4.580798 -0.000002 0.000000 0.000001 0.351227 -2.793818 11.726573 -0.500548 -1.607178 0.116167 0.000001 -0.000000 -0.000001 0.532647 -3.172943 15.824490 -0.748163 -1.598052 -1.403951 -0.000001 -0.000000 0.000000 1.189133 -2.249946 16.165335 -1.565483 -2.331387 -7.496142 -0.000000 -0.000001 -0.000003 -0.000001 -0.000001 0.000001 -0.110409 -10.118204 8.367025 0.102734 -11.404889 41.826518 0.000049 110.232327 -0.000052 37.021671 -13.536603 32.553535 -2.746438 -3.129222 -8.660088 -1.807535 -12.020750 -6.483943 -0.000001 -0.000000 -0.000001 -0.063676 2.253699 -2.006482 -0.720143 2.571960 0.316167 -0.000001 0.000000 0.000000 0.067757 2.915122 -6.804413 -0.933832 1.620023 4.758562 0.000000 0.000000 -0.000000 0.217008 3.307959 -10.917035 -1.220292 1.572915 6.292049 0.000001 0.000001 -0.000001 0.385834 6.488215 -11.389699 -0.694800 -1.547235 12.468054 0.000003 0.000000 -0.000001 -0.000000 0.000000 0.000000 -0.000000 -0.000000 0.000000 -0.000000 -0.000000 0.000000 -0.000000 -0.000000 0.000000 -0.000000 -0.000000 0.000000 -0.000000 -0.000000 0.000000 -0.000000 -0.000001 -0.000000 -0.000000 -0.000000 0.000000 -0.000000 -0.000000 0.000000 -0.000000 -0.000000 -0.000000 -0.000000 0.000000 0.000000 -0.000000 0.000000 0.000000 0.000001 0.000001 -0.000000 
1.162238 81.125252 1.200418 5.839012 19.275263 -4.874919 0.000000 -0.000000 0.000000 -21.674851 9.193342 -2.179406 35.594083 4.770756 1.529491 -9.334368 -0.872702 6.000410 -0.000000 -0.000001 0.000000 0.000000 -0.000001 -0.000000 -0.000000 0.000002 0.000000 -10.601070 -7.622185 5.538351 20.779042 -2.821581 -3.718911 -13.027539 0.038068 0.034212 0.000000 0.000001 0.000000 0.000000 0.000001 0.000000 0.000002 0.000000 0.000000 -10.569418 -10.677831 1.002489 5.259094 -1.547639 1.776884 5.282379 -1.631456 1.628382 2.552511 -2.484928 1.482319 7.859773 -10.020501 -1.000448 0.000000 0.000000 -0.000000 0.000000 0.000000 -0.000000 0.000000 0.000000 -0.000000 1.186082 -1.425575 3.558483 -22.040827 -48.759447 -54.632142 0.000054 -103.590822 0.000080 38.498617 -26.439777 31.857727 -2.563454 6.851370 8.301411 -2.751255 9.053915 6.889703 -0.000001 0.000000 -0.000000 0.160831 -2.147641 6.867740 -0.273411 -2.525440 4.537465 0.000000 -0.000000 -0.000000 0.348812 -2.795076 11.683940 -0.504421 -1.607556 0.072880 -0.000001 0.000000 -0.000001 0.529948 -3.174335 15.781830 -0.752388 -1.598105 -1.447210 -0.000000 0.000000 0.000001 1.187122 -2.251822 16.122752 -1.569734 -2.331478 -7.539451 0.000000 0.000000 -0.000001 -0.000001 0.000002 0.000002 -0.134169 -11.010195 8.907853 -1.014108 -14.176339 40.544618 0.000035 108.876187 -0.000065 36.142790 -15.753961 29.673234 -2.822728 -5.047348 -8.711309 -1.578399 -14.311825 -6.610044 0.000001 0.000001 -0.000001 -0.063678 2.253698 -2.006479 -0.720144 2.571960 0.316165 -0.000000 0.000000 -0.000001 0.067753 2.915121 -6.804411 -0.933831 1.620025 4.758558 0.000002 0.000001 0.000001 0.217004 3.307958 -10.917037 -1.220294 1.572914 6.292048 0.000003 0.000000 0.000000 0.385831 6.488214 -11.389698 -0.694801 -1.547235 12.468054 -0.000001 0.000000 -0.000001 -0.000003 -0.000000 -0.000000 -0.000000 0.000000 0.000000 -0.000000 0.000000 0.000000 -0.000000 0.000000 0.000000 -0.000000 0.000000 0.000000 -0.000000 0.000000 0.000000 -0.000000 0.000000 -0.000000 -0.000000 0.000000 0.000000 -0.000000 0.000000 0.000000 -0.000000 0.000000 0.000000 0.000000 -0.000000 -0.000000 0.000000 -0.000000 -0.000000 0.000000 -0.000000 0.000000 
1.251725 81.036972 1.269684 6.536258 20.113727 -6.252718 0.000000 -0.000001 -0.000000 -25.044161 8.561042 -0.785054 39.322161 0.840522 1.891936 -6.522604 -0.496909 5.668181 0.000000 -0.000000 -0.000001 -0.000001 -0.000000 -0.000000 -0.000000 -0.000001 0.000000 -9.843897 -7.940409 5.871302 18.930423 -3.712102 -1.769055 -13.160742 0.210350 -0.969213 0.000000 -0.000000 -0.000000 0.000000 -0.000000 0.000000 0.000001 0.000001 -0.000000 -11.035899 -10.637811 1.513604 5.330512 -1.459977 2.381428 5.365313 -1.564761 2.234579 2.340007 -2.696114 1.292713 8.182996 -11.133921 -1.482074 -0.000002 -0.000001 0.000000 -0.000002 -0.000001 0.000000 -0.000002 -0.000001 0.000000 1.308544 -1.578316 4.233613 -20.025433 -51.812900 -51.575780 0.000123 -103.703425 0.000123 40.178188 -25.145555 33.351001 -2.563591 6.852924 8.302132 -2.751253 9.053917 6.889702 -0.000001 -0.000000 -0.000001 0.159945 -2.148153 6.848174 -0.275181 -2.525744 4.518262 -0.000001 -0.000000 -0.000000 0.347704 -2.795649 11.664369 -0.506135 -1.607725 0.053693 -0.000001 0.000000 -0.000002 0.528712 -3.174974 15.762239 -0.754257 -1.598130 -1.466391 -0.000001 -0.000001 0.000000 1.186203 -2.252688 16.103178 -1.571621 -2.331515 -7.558640 0.000000 0.000001 0.000002 -0.000000 -0.000002 -0.000000 -0.170224 -11.858347 9.602237 -2.363589 -16.609055 39.380982 0.000145 107.183420 -0.000172 35.252013 -17.372538 27.022600 -2.916393 -7.336462 -8.776067 -1.271712 -17.421048 -6.768088 -0.000000 0.000003 0.000001 -0.063677 2.253700 -2.006480 -0.720145 2.571960 0.316167 0.000001 -0.000001 -0.000000 0.067757 2.915123 -6.804410 -0.933833 1.620025 4.758559 -0.000002 0.000001 -0.000001 0.217006 3.307958 -10.917035 -1.220293 1.572915 6.292048 0.000000 -0.000001 0.000002 0.385832 6.488216 -11.389696 -0.694799 -1.547233 12.468053 -0.000002 -0.000000 0.000001 0.000001 0.000000 -0.000000 0.000000 0.000000 -0.000000 0.000000 0.000000 -0.000000 0.000000 0.000000 -0.000000 0.000000 0.000000 -0.000000 0.000000 0.000000 -0.000000 0.000000 0.000000 -0.000000 0.000000 0.000000 -0.000000 0.000000 0.000000 0.000000 0.000000 0.000000 0.000000 -0.000000 -0.000000 0.000000 -0.000000 -0.000000 0.000000 0.000000 -0.000001 -0.000000 
